<svg width="452" height="461" viewBox="0 0 452 461" fill="none" xmlns="http://www.w3.org/2000/svg">
<path fill-rule="evenodd" clip-rule="evenodd" d="M133.455 97.4948C129.234 155.089 128.275 164.7 128.466 167.962C128.466 175.252 136.524 179.857 143.431 182.159C171.844 192.538 282.063 201.382 299.732 189.852C308.074 181.9 313.023 171.034 313.545 159.52C315.464 144.729 315.272 85.0053 309.708 78.2905C301.075 66.9713 283.425 67.1631 206.607 64.6691H146.5C132.879 64.4772 133.646 95.5571 133.455 97.4756M147.268 78.2713C186.367 78.5591 225.39 81.7822 264.029 87.8639C269.4 87.8639 286.091 87.8639 291.463 89.5906C289.545 91.7009 291.463 99.5668 292.423 102.08C295.108 121.265 292.423 168.71 287.434 171.78H283.214C249.429 168.326 220.056 181.564 151.489 167.367C138.635 163.914 147.268 93.2549 147.268 77.6958V78.2713Z" fill="#0C6FFF"/>
<path fill-rule="evenodd" clip-rule="evenodd" d="M426.661 78.2907C420.522 76.1804 383.265 74.07 383.456 81.1685C378.852 97.0921 420.522 83.6626 424.743 94.5981C429.654 110.714 431.86 127.52 431.266 144.345C415.546 137.597 398.211 135.532 381.346 138.398C381.346 60.0457 383.648 61.5805 381.346 49.302C380.228 40.6499 375.748 32.786 368.876 27.4118C302.591 -16.3687 209.467 12.4282 137.848 2.45195C118.333 -0.817316 98.4086 -0.817316 78.8926 2.45195C53.9328 8.97489 54.3165 31.2296 64.8875 31.2296C65.8568 31.349 66.8406 31.2492 67.7662 30.9376C68.6918 30.6259 69.5356 30.1104 70.2354 29.4291C70.9351 28.7478 71.4729 27.918 71.8091 27.001C72.1453 26.0841 72.2713 25.1033 72.1778 24.1311C72.1778 7.63193 120.755 14.5386 135.738 16.8408C205.438 27.3926 299.713 1.87639 358.477 42.3762C367.303 48.5154 362.89 60.2375 358.477 279.332C359.82 317.587 356.751 355.861 349.268 393.387C346.583 403.747 344.472 419.517 336.012 425.273C306.812 444.458 245.957 438.127 211.001 431.028C176.046 423.93 146.29 434.29 114.999 429.302C99.248 426.808 61.6068 427.191 57.3861 414.721C55.8764 409.848 54.9113 404.823 54.5083 399.737C67.388 400.402 80.1908 399.699 92.9169 397.627C94.1473 396.372 94.8364 394.684 94.8364 392.927C94.8364 391.169 94.1473 389.481 92.9169 388.226C80.9655 382.187 67.8819 378.717 54.5083 378.039C54.5083 364.015 56.0432 354.998 57.9617 333.299C69.7221 334.067 81.521 333.338 93.1088 331.189C94.3391 329.934 95.0283 328.246 95.0283 326.489C95.0283 324.731 94.3391 323.043 93.1088 321.788C82.5667 316.289 70.9817 313.079 59.1128 312.368V264.54C68.2641 265.115 77.4346 264.425 86.3748 262.43C87.6052 261.174 88.2943 259.487 88.2943 257.729C88.2943 255.972 87.6052 254.284 86.3748 253.029C77.9701 248.213 68.5984 245.329 58.9401 244.587V185.44C68.0722 186.015 77.2427 185.305 86.183 183.329C87.4133 182.074 88.1024 180.387 88.1024 178.629C88.1024 176.871 87.4133 175.184 86.183 173.929C77.9717 169.132 68.7821 166.255 59.3238 165.468V110.349C68.4559 110.925 77.6264 110.234 86.5667 108.239C87.797 106.983 88.4861 105.296 88.4861 103.538C88.4861 101.781 87.797 100.093 86.5667 98.838C78.162 94.022 68.7902 91.1384 59.132 90.3965C62.5853 40.8414 62.0097 47.5753 61.626 45.8295C61.5942 44.9987 61.363 44.1878 60.9518 43.4653C60.5405 42.7427 59.9614 42.1297 59.2634 41.6782C58.5653 41.2266 57.7688 40.9497 56.9412 40.8708C56.1136 40.792 55.2791 40.9135 54.5083 41.2251C48.1773 42.7599 49.7121 48.1317 46.6424 88.6507C29.9322 86.5403 -2.52901 83.087 0.156906 99.0106C0.156906 100.948 2.45912 102.867 6.29614 104.21C10.1332 105.553 39.5248 109.198 46.6424 110.157V163.549C30.1241 161.631 -1.95346 158.178 0.732459 174.101C0.732459 180.049 12.2627 180.624 45.664 184.845C45.664 204.068 44.5129 223.273 44.321 242.477C28.5893 240.75 -1.95346 237.681 0.732459 253.221C0.732459 255.139 3.03467 257.058 6.8717 258.401C10.7087 259.744 33.5774 262.429 44.1292 263.772C44.1292 281.25 44.1292 293.164 42.5944 310.45C28.5892 309.491 4.20497 307.956 6.69903 321.961C6.69903 323.879 9.00125 325.798 12.8383 327.141C13.7975 327.141 28.9538 329.827 40.6759 331.362C38.3737 352.676 37.0307 362.096 36.2633 376.504C23.4093 376.504 4.58867 376.504 6.69903 388.399C6.69903 390.317 9.00125 392.236 12.8383 393.771L36.0714 397.224C36.2889 405.192 37.5039 413.007 39.7166 420.668C48.1581 446.952 90.231 445.417 112.121 449.446C142.05 454.837 179.327 446.568 208.124 452.343C250.177 461.168 314.505 467.883 350.017 443.71C363.059 432.162 371.056 415.962 372.291 398.586C379.236 367.065 382.401 334.834 381.691 302.565C390.804 305.538 400.378 306.843 409.932 306.402C415.091 305.744 420.313 305.744 425.472 306.402C422.402 335.41 424.129 322.92 422.402 343.851C418.565 353.635 415.687 358.816 405.136 359.199C403.409 359.199 384.396 355.17 380.368 361.885C379.553 363.13 379.203 364.621 379.379 366.098C379.554 367.575 380.244 368.943 381.327 369.962C388.982 372.59 397.059 373.818 405.116 373.607C452.945 374.95 443.544 297.96 450.451 225.383C451.794 192.538 458.72 88.6507 426.661 78.2907ZM431.055 161.823C431.055 184.653 428.177 207.33 426.834 224.232C426.834 233.824 432.781 221.354 380.943 225.767V155.089C397.251 159.597 414.133 161.88 431.055 161.823ZM380.368 285.452V244.587C389.289 246.678 398.517 247.197 407.63 246.122C413.769 246.301 419.844 245.854 425.855 244.779V290.286C411.301 285.043 395.695 283.397 380.368 285.49" fill="white"/>
</svg>
